<?xml version="1.0" encoding="UTF-8" standalone="no"?>
<svg width="188.26" xmlns="http://www.w3.org/2000/svg" height="327">
 <g fill-rule="evenodd">
  <g fill="#557c3e">
   <path id="svg_119" d="m142.51 171l2.25 5.25-4.5-3c-1.75 2.75-3.5 5.5-5.25 8.25 0.173-1.559 0.347-3.117 0.52-4.677 0.226-2.031 0.418-2.261 1.897-3.74 0.51599-0.51599 0.892-0.737 1.555-1.069 0.806-0.40201 0.771-1.056 1.278-1.764 0.396-0.55299 1.021-1.015 1.5-1.5 0.127-0.129 0.605 0.116 0.75 0 0.209-0.168-0.194-0.653 0.15601-0.828 1.488-0.744 2.38-1.708 3.566-2.895 0.504-0.504 0.61-0.77699 1.306-0.77699 0.094009 0 0.88901-0.082993 0.972 0 0.174 0.174 0.056 0.75-0.194 0.75-0.73 0-0.90399 0.75-1.5 0.75-1.001 0-0.157 0.48399-0.774 0.896-1.427 0.95201-2.854 1.903-4.281 2.854 1.102 0 12-0.149 12 0.194 0 1.17-4.981 0.556-6.062 0.556h-3.895c-1.021 0-0.102 1.046-1.294 0.75"/>
   <path id="svg_120" d="m136.51 165.75h-9.172c-1.152 0-2.186-0.804-3.199-1.311-1.041-0.521-2.219-0.35899-3.379-0.939 1.756-1.17 3.464-3.404 5.386-4.045 1.96-0.653 3.821-2.705 5.967-2.705 1.121 0 2.409-0.244 3.426 0.26401 0.642 0.321 2.472 1.304 2.472 2.089-0.001007 2.578-0.34 4.327-1.501 6.647"/>
  </g>
  <path id="svg_121" fill="#83b94d" d="m137.26 170.25h-6.696c-0.31599 0-0.509-0.66901-0.804-0.75-0.51799-0.142-1.269 0-1.804 0-0.898 0-0.033005-0.625-0.44601-0.75-0.421-0.12801-1.057 0-1.5 0h3.423c0.976 0 1.25 1.16 2.577 0.75 0.31601-0.098007 0.48401-0.75 0.83701-0.75h2.043c1.369 0 1.886 0.133 3.12 0.75-0.145-0.918 0.506-1.256 1.111-1.861 0.64099-0.64101 0.149-1.172 0.414-1.965 0.56999-1.711 1.475-3.493 1.475-5.31 0-3.502-2.894-6.614-6.348-6.614-3.62 0-6.94 0.40401-9.95 2.661-1.609 1.208-2.996 2.383-4.418 3.805-0.862 0.862-3.636 1.909-3.284 3.284 0-2.459 2.25-4.221 2.25-6.528 0-1.578 3.566-3.6 5.025-4.572 2.186-1.457 4.026-2.4 6.726-2.4 1.213 0 2.182 0.085999 3.369 0.324 0.681 0.136 1.361 0.27199 2.043 0.40799 0.629 0.12601 0.629 0.768 1.393 0.768 0.518 0 1.084 0.44501 1.538 0.672 0.36499 0.183-0.024002 0.64801 0.23299 0.905 1.042 1.042 1.773 1.658 2.173 2.923 0.696 2.208 1.025 4.699-0.052002 6.853-1.189 2.378-1.906 4.334-3.393 6.563-0.81601 1.226-1.634 2.451-2.451 3.677-0.522 0.784-2.262 1.236-3.104 1.657l4.5-4.5"/>
  <g fill="#557c3e">
   <path id="svg_122" d="m161.26 152.25c-0.84599 1.239-2.88 1.419-4.125 2.25-1.393 0.929-2.716 1.943-4.055 2.948-2.584 1.938-6.155 2.714-8.32 5.302 0.646-1.937 0.75-3.263 0.75-5.315 0-1.006-0.494-3.935-1.5-3.685 3.634-3.634 8.042-8.25 13.5-8.25-2.731 2.276-5.474 4.529-8.25 6.75 5.75-1 11.5-2 17.25-3l-5.25 4.5h13.5l-7.5 3c1.221 0.48801 2.441 0.977 3.663 1.465 0.39499 0.158 1.009 0.035004 1.431 0.035004 0.541 0 0.696 0.75 1.353 0.75 1.664 0 1.728 0.33701 3.082 1.014 1.045 0.52199 2.603 0.14899 3.222 1.236-1.129 0-1.996-0.254-2.806 0.556-0.565 0.565-2.405 0.194-3.194 0.194 1.5 1.75 3 3.5 4.5 5.25-1.646 0.23801-3.892-2.094-5.192-2.962-1.552-1.035-3.598-1.861-5.41-2.314-4.173-1.043-8.352-0.724-12.647-0.724 0.727-0.55499 1.025-1.301 1.422-2.094 0.34801-0.694 1.268-1.036 1.611-1.722 0.806-1.616 1.471-4.057 2.965-5.184"/>
   <path id="svg_123" d="m168.76 150.75l8.25-7.5c0.284 1.141-0.356 0.356-0.75 0.75-0.125 0.125 0.12401 0.623 0 0.75-0.084991 0.085999-0.71899-0.093002-0.75 0-0.588 1.744 0.408 2.658 1.5 3.75-1.154-0.287-0.41299 0.75-0.944 0.75-1.082 0-1.155 1.148-2.056 1.5-1.331 0.52-3.8 0-5.25 0"/>
   <path id="svg_124" d="m169.51 129c-1.062-0.218-1.754 1.004-2.417 1.667-0.56601 0.56699-1.383 0.95499-2.083 1.333-2.098 1.134-3.064 2.586-4.5 4.5h12c-0.662-0.16499-0.75-0.014008-0.75 0.556 0 0.37-0.655 0.098999-0.944 0.38901-0.974 0.974-2.331 1.443-3.556 2.056 1.007 0.252 2.228 0.364 3.156 0.82799 0.69899 0.35001 2.647 0.476 3.038 0.86601 0.65001 0.64999 2.069 0.924 2.962 0.478 1.331-0.666 2.095-0.672 3.594-0.672-2.377 2.376-5.105 2.799-8.458 3.674-3.931 1.025-7.861 2.051-11.792 3.076 0.285-0.164 1.499-2.018 1.5-2.25 0.001999-0.67601-0.866-2.25-1.306-2.25-0.46199 0-0.55499-0.65001-0.944-0.75-0.47-0.121-1.14 0-1.62 0-1.352 0-2.225 0.031998-3.494 0.45499-1.593 0.53101-4.036 1.196-5.204 2.363-1.761 1.761-3.253 3.505-5.432 4.682-1.178 0.63599-1.096 1.154-2.25 0-0.424-0.42401-1.93-1.5-2.444-1.5-0.993 0-1.371-0.75-2.557-0.75-1.395 0-2.224-0.158-3.553-0.602-2.083-0.694-3.816 0.602-5.832 0.602-1.519 0-1.655 0.291-2.753 1.389-0.743 0.744-2.17 1.141-3.111 1.611 0.82201-3.291 1.489-7.544 0.65501-10.878-0.484-1.937-1.234-3.61-1.86-5.486-0.58701-1.762-0.435-3.554-1.045-5.386 0.97501 0.745 1.206 1.957 2.056 2.806 0.80801 0.808 1.945 1.195 2.806 2.056 1.763 1.762 3.919 1.779 6.018 2.828 2.095 1.047 4.163 2.061 6.557 2.061 2.48 0 5.721 0.586 8.124-0.014999 2.202-0.55 4.66-0.845 6.697-1.863 1.495-0.74799 2.991-1.496 4.486-2.243 0.886-0.44299 2.098-0.059998 2.521-0.90599 0.61801-1.235 1.601-1.337 2.542-2.278 0.368-0.36801 1.06-0.194 1.559-0.194 1.056 0 0.78101-0.513 1.636-0.75 0.46501-0.12901 1.032 0.12 1.5 0 0.62801-0.16 0.535-0.75 1.306-0.75 0.48201 0 0.619-0.75 1.069-0.75 0.70601-0.003006 1.415-0.003006 2.123-0.003006"/>
   <path id="svg_125" d="m115.51 93c-0.242 1.064 0.574 0.75 1.364 0.75 1.024 0 1.427 0.524 2.386 0.75 0.747 0.176 1.312-0.094002 2.028 0.264 0.93301 0.466 1.422 0.486 2.472 0.486-1.473 0.982-2.303 1.579-3.275 3.038-0.902 1.354-2.466 1.694-3.211 3.184-0.715 1.431-1.717 2.683-2.436 4.122-0.716 1.432-1.072 3.137-1.578 4.656-0.771-3.859-1.5-7.201-1.5-11.144 0-2.1-0.056999-3.687 0.602-5.66 0.562-1.689 1.771-3.064 2.356-4.822 0.396-1.187 2.051-3.379 3.198-3.953 2.019-1.009 3.239-1.54 5.397-0.82 1.432 0.477 3.898 1.356 4.946 2.398 0.209 0.208 1.402 1.96 1.5 2.25 0.32199 0.954-0.386 1.603 0.75 2.25-4.999 0.751-9.999 1.501-14.999 2.251"/>
  </g>
  <path id="svg_126" fill="#ed1c24" d="m167.26 102.75c0.513 3.074 0.75 5.809 0.75 8.924 0 2.652-2.335 6.246-3.484 8.544-2.711 5.423-7.682 8.739-13.016 11.406-5.2 2.6-11.806 3.611-17.499 2.188-1.45-0.362-2.847-0.845-4.266-1.317-1.531-0.51-2.034-1.361-3.337-2.229-0.72-0.48001-3.009-1.432-3.463-2.112-0.704-1.056-1.421-2.888-2.297-3.765-3.636-3.636-4.183-9.712-2.983-14.51 1.206-4.823 5.906-9.003 9.845-11.628-0.482 0.966-0.966 1.932-1.448 2.897-0.356 0.713-1.309 1.055-1.636 1.792l-2.916 6.561c2.114-2.114 4.918-3.418 7.034-5.534 1.264-1.264 2.381-2.243 3.864-3.231 0.76799-0.512 2.749-1.89 2.602-2.484l3 9 2.01-6.03c0.57999-1.738 0.28699-3.11 2.152-2.737 4.613 0.922 9.226 1.845 13.838 2.768l-9-7.5c1.896-0.711 4.009-1.914 6-2.25 2.302-0.389 4.557 0.769 6.674 1.475 3.986 1.325 6.65 6.063 7.576 9.772"/>
  <path id="svg_127" fill="#83b94d" d="m141.76 86.25c0.287-0.499 2.432-1.522 3-1.5 1.776 0.068001 0.013 1.487-0.63899 2.139-0.36801 0.368-0.55301 0.994-0.783 1.455-0.232 0.465-1.132 0.662-1.578 0.906-1.275 0.698-2.503 1.502-3.75 2.25 0.698 0 1.572-0.154 2.25 0 0.866 0.197 1.303 0.844 2.25 0.75h-1.5l3.75 3.75c-1.72-0.43-3.439-0.86-5.16-1.29-1.505-0.376-1.267 1.496-1.59 2.79-0.189-0.945-0.15799-4.119-1.5-3.75l1.5-0.75h-2.696c-0.54399 0-1.276-0.134-1.804 0-0.71399 0.181-0.56 0.948-1.5 0.75 1.419-1.419 1.5-1.63 1.5-3.625 0-0.908-1.154-2.839-1.458-3.75-0.356-1.067-2.182-2.264-2.983-3.065-0.98401-0.984-2.382-1.583-3.673-2.014-1.235-0.412-2.597-0.896-3.886-1.045-1.655-0.191-2.786 0.643-4.229 1.364-0.494 0.247-1.375 0.491-1.771 0.886-0.405 0.403-0.371 1.311-0.906 1.578-1.7 0.85-1.989 1.962-2.844 3.672v-2.125c0-0.569 0.75-0.995 0.75-1.847 0-0.88 1.494-2.93 2.25-3.528 2.973-2.352 5.955-2.25 9.495-2.25 1.18 0 3 1.831 3.966 2.474 1.354 0.903 2.418 2.155 3.566 3.304 2.244 2.244 2.993 5.534 3.973 8.472 0.74901-0.431 1.342-3.75 1.694-3.75 0.896 0 1.325-0.769 1.944-1.389 0.502-0.502 1.691-0.638 2.362-0.862"/>
  <g fill="#557c3e">
   <path id="svg_128" d="m129.01 69c0 1.904 0.81401 2.314 2.173 3.673 0.58501 0.58501 3.695 0.077003 4.577 0.077003-1.401-0.252-1.87 2.61-2.208 3.625-0.578 1.734-1.024 2.892 0.51399 4.43 1.057 1.057 3.194-1.5 3.194 0 0 0.646-0.75 1.017-0.75 1.917 0 1.004-1.051 0.07-0.75 1.278-1.688-3.377-5.365-6.789-8.985-7.995-2.546-0.849-4.206-1.005-6.903-1.005h-1.295c-0.382 0-0.545 0.75-0.973 0.75-0.498 0-1.173-0.171-1.538 0.194-0.436 0.436-0.647 0.694-1.306 0.556 0.55-0.316 1.45-3 1.587-3 1.631 0 3.169 0.247 4.635-0.486 2.452-1.226 6.294-1.716 8.028-4.014"/>
   <path id="svg_130" d="m120.01 56.25c0.121-0.121 0.326 0.113 0.24-0.24-0.352-0.086998-0.119 0.119-0.24 0.24"/>
  </g>
  <path id="svg_133" fill="#83b94d" d="m117.01 51c0 8.209-0.837 16.674-4.578 24.156-0.988 1.977-2.172 3.144-2.172 5.397 0 1.67-1.5 3.066-1.5 4.636v8.203c0 0.901 0.688 5.252-0.75 4.857 1.559-0.371 0.479 5.052 0.82301 6.255 0.801 2.805 1.475 5.375 1.835 8.26 0.662 5.299 2.705 10.256 4.167 15.373 1.428 4.999 3.675 9.776 3.675 15.098 0 2.996-0.652 5.298-1.48 8.198-0.361 1.264-0.452 2.663-0.668 3.958-0.197 1.186-0.852 1.471-0.852 2.858 0-6.234 0.264-12.405-0.618-18.579-0.851-5.95-3.051-11.847-4.508-17.676-0.643-2.567-2.518-4.819-3.149-7.348-0.702-2.809-1.58-5.57-2.282-8.376-1.588-6.351-2.192-12.278-2.192-18.819 0-2.657 2.055-6.062 3.258-8.468 1.609-3.218 3.521-5.901 5.508-8.882 1.901-2.852 2.439-6.125 3.098-9.417 0.64899-3.253 1.581-6.465 2.385-9.684"/>
  <g fill="#557c3e">
   <path id="svg_134" d="m96.006 66c0.569 2.845 0.44801 5.844 1.352 8.554 0.077995 0.237 0.157 1.196 0.251 1.196h2.519c0.765 0 0.038002-0.75 0.573-0.75 0.899 0 0.55601-0.696 0.55601-1.5-0.012001 0.249 0 0.5 0 0.75 0.52399-2.1 0.75-3.736 0.75-5.897 0-1.317 1.784-3.956 2.25-5.353 1.454 0.856 0.75 3.824 0.75 5.25 1.664-0.555 3.417-0.834 4.236-2.472 0.48-0.961 1.014-1.11 1.014-2.25 0-1.004 1.051-0.07 0.75-1.278 0 1.991-0.909 3.319-1.804 5.108-0.751 1.501-1.755 3.24-2.696 4.642-1.99 2.962-4.895 6.118-5.497 9.735-0.669 4.012-1.253 7.614-1.253 11.693 0 3.743 0.592 7.188 1.5 10.822-3.922-5.882-7.496-11.989-9.725-18.674-0.443-1.328-0.024994-3.458-0.024994-4.846 0-1.7-0.246-3.493 0.295-5.116 0.592-1.777 1.433-3.207 2.47-4.763 0.908-1.361 1.218-3.303 1.734-4.851"/>
   <path id="svg_136" d="m59.256 114.75c7.25-2.25 14.5-4.5 21.75-6.75l-8.25-4.5 14.25-0.75-8.25-4.5c0.788 0.394 1.712 0.481 2.406 0.828 1.081 0.541 1.833 0.308 2.844 0.672 0.861 0.311 2.075 1.413 2.972 1.861 0.885 0.442 1.431 1.003 2.001 1.801 2.682 3.755 4.812 7.418 6.629 11.66 3.678 8.582 7.108 17.44 8.647 26.677-1.704-5.113-3.593-9.988-6.375-14.625-1.537-2.562-3.681-4.431-5.796-6.546-1.489-1.489-3.229-3.396-5.345-3.749-2.737-0.456-4.968-1.331-7.719-1.331-1.209 0-2.691-0.287-3.792 0.264-1.176 0.587-2.269 0.384-3.444 0.972-1.148 0.574-1.747 1.789-2.778 2.514-1.252 0.881-2.01 1.021-2.736 2.472-0.695 1.39-6.189 0.528-7.764 0.528l9-7.5c-2.75 0.001999-5.5 0.001999-8.25 0.001999"/>
   <path id="svg_137" d="m49.506 118.5c1.539-0.152 2.799 1.398 4.5 0.75 0.128-0.049004-0.162-0.75 0.076-0.75h1.409 3.015c-1.325 0.927-2.65 1.855-3.975 2.782-0.834 0.584-2.663 2.468-3.719 2.468-1.249 0-2.113-1.5-3.361-1.5-1.062 0-1.957-1.76-3.194-1.5 0.23-0.4 2.084-1.5 2.444-1.5 0.771 0 0.677-0.59 1.306-0.75 0.44-0.112 1.042 0 1.499 0"/>
  </g>
  <path id="svg_138" fill="#ed1c24" d="m21.756 186c-0.645-0.86-2.017-2.068-2.276-3.103-0.368-1.474-0.673-2.796-1.35-4.148-0.833-1.666-0.875-2.49-0.875-4.37 0-1.224-0.75-2.373-0.75-3.588 0-3.312-0.077-6.234 0.724-9.438 0.308-1.229 1.311-2.241 1.621-3.481 0.45-1.802 0.937-3.184 1.767-4.844 1.283-2.567 4.242-4.631 6.26-6.649 0.703-0.703 2.199-0.759 3.09-1.353 1.493-0.996 2.678-1.311 4.435-1.75 2.44-0.61 5.186-2.276 7.755-2.276h9.598c-1.995 0-2.832 0.411-4.5 1.5-0.736 0.48-1.172 0.961-2.001 1.375-0.742 0.371-1.798 1.372-2.499 1.625-0.782 0.282-1.5-0.517-1.5 0.556 0 0.054001-1.137 0.436-1.436 0.623-1.771 1.107-3.542 2.214-5.314 3.321 2.181-0.242 4.361-0.48399 6.542-0.727 1.869-0.20799 3.516 0.12401 5.323-0.478 0.94-0.313 1.688-0.295 2.689-0.295 0.811 0 1.381-0.75 2.155-0.75h6.542l-2.25 12 6.552-6.552c0.809-0.80899 1.618-1.618 2.427-2.427 0.056999-0.056992 1.447 1.269 1.555 1.366 4.739 4.288 9.478 8.575 14.217 12.863-1.75-5-3.5-10-5.25-15 3.409 0.63901 6.817 1.278 10.226 1.917 2.713 0.50899 4.515 2.324 6.44 4.249 1.288 1.288 4.071 4.52 4.417 6.249 0.65501 3.275 1.417 6.372 1.417 9.708 0 5.29-2.518 11.733-5.678 15.947-1.909 2.546-3.483 4.987-6.021 6.892-2.528 1.896-4.955 3.28-7.637 4.89-1.098 0.659-2.291 1.68-3.542 1.993-1.286 0.321-2.521 0.615-3.749 1.106-2.491 0.996-5.086 1.799-7.808 1.799-1.251 0-2.521-0.10899-3.75 0.13699-1.193 0.23901-2.461 0.714-3.674 0.51201-2.651-0.44101-5.279-1.005-7.928-1.446-2.825-0.47101-5.367-0.909-7.963-2.202-2.462-1.227-4.491-2.98-6.75-4.5-2.203-1.481-4.844-2.594-6.75-4.5-1.859-1.859-3.166-4.526-4.501-6.751"/>
  <g fill="#557c3e">
   <path id="svg_139" d="m82.506 123.75c0.50201 0.874 0.931 0.39 1.5 0.75 0.44 0.278-0.448 1.048 0.75 0.75-1.123-0.111-1.898 0.75-3.028 0.75-0.667 0-1.576-0.168-2.222 0-0.714 0.186-0.56 0.948-1.5 0.75 1.42-1.42 2.693-2.096 4.5-3"/>
   <path id="svg_140" d="m78.006 204.75c0.421 1.265 0.76601 2.273 1.5 3.375 0.736 1.104 0.884 2.349 1.544 3.449 1.6 2.667 3.262 4.996 5.206 7.426l-9-7.5 1.5 7.5-15-3 3.75 6-2.25 0.75c-0.148-0.59399-0.296-2.651-0.75-3-0.451-0.347-2.394 0-3 0 0.411-1.232 1.483-3.966 0.75-5.25-1.089-1.906-3.141-0.30499-4.352 0.301l-6.738 3.369c-0.55 0.27501-1.267-0.116-1.816 0.158l-2.844 1.422c0-1.542 0.659-2.427 1.5-3.75 0.975-1.533 1.893-3.036 2.734-4.719 0.55-1.1 0.314-2.031 1.844-2.031h6.787c6.207 0 13.112-1.738 18.635-4.5"/>
   <path id="svg_141" d="m69.756 225h-2.25c0.872-0.436 1.635-1.184 2.25 0"/>
   <path id="svg_142" d="m75.756 240c-4.75-0.75-9.5-1.5-14.25-2.25 0.825 0.082001 1.371-0.311 2.094-0.672 0.236-0.118 0.443-0.078003 0.712-0.078003 0.46201 0 0.555-0.651 0.944-0.75 0.705-0.179 1.545 0.179 2.25 0-0.029999 0.007996 1.5-1.22 1.5-0.853 0-2.351 0.136-2.761-1.5-4.397-1.2-1.199-2.333-2.056-3.75-3h12c-1.75-2.5-3.5-5-5.25-7.5l12 3-0.75-4.5 3.75 3c0.61301 0.49 3.75 2.345 3.75 3.156 0 3.309 0.487 6.272 1.082 9.544 0.543 2.99 0.57201 6.082 1.168 9.05 0.661 3.293 1.94 6.569 3 9.75-4.637-2.318-8.463-5.821-13.5-7.5 0.3-0.157 0.46001-0.57201 0.75-0.75l-6-5.25"/>
   <path id="svg_143" d="m88.506 215.25c-1.833-3.667-5.315-7.088-6-11.25-0.46-2.794 2.37-2.37 3.861-3.861 1.636-1.636 3.322-2.257 4.389-4.389-0.49899 2.994-1.5 6.254-1.5 9.287 0 3.486-0.31699 6.749-0.75 10.213"/>
   <path id="svg_144" d="m28.506 208.5c-0.632-0.133-1.178 0.189-1.5 0.75-0.45-1.35-0.898-1.953-0.264-3.222 0.481-0.96201 0.543-2.308 1.298-3.062l1.682-1.682c0.525-0.52499 0.949 0.381 1.396 0.827 0.807 0.80701 2.053 0.748 2.99 1.373 2.221 1.48 4.45 2.116 6.997 2.965 2.504 0.83499 4.998 2.051 7.652 2.051-1.223 1.834-1.802 3.828-3 5.625-0.656 0.98399-0.974 1.797-1.352 2.929-0.203 0.61099-0.807 0.22099-0.898 0.446-0.151 0.373 0 1.091 0 1.5l-2.25-0.75c0.163 1.038-0.831 1.581-1.5 2.25-0.37-0.741-0.741-1.481-1.111-2.223-0.154-0.308-1.139-1.425-1.139-1.594v-5.184c-0.913 0.68501-1.826 1.369-2.739 2.054-0.756 0.567 0.417 1.994-1.011 1.696 0.699-1.398 0.75-2.057 0.75-3.63 0-1.935-0.448-1.588-1.5-3.12-0.346-0.504 0.030998-0.71999-0.556-1.306-0.325-0.325-1.25-0.308-1.694-0.194-0.274 0.070007-0.517 0.57001-0.75 0.75-0.16 0.123-0.577-0.10899-0.75 0-0.441 0.27901 0.447 1.049-0.751 0.75101"/>
   <path id="svg_145" d="m46.506 244.5l-2.25 6-5.25-3-2.25 5.25c-0.866-1.113-4.658-7.114-5.695-6.477-3.102 1.909-6.203 3.818-9.305 5.727 1.5-2.5 3-5 4.5-7.5l-16.5 3c7-3.75 14-7.5 21-11.25l-9-4.5 15-3-3-2.25h3.423c0.677 0 0.327 1.667 0.327 2.25-0.236-1.505 1.683-2.817 2.806-1.694 0.528 0.52699 1.361 0.61101 1.889 1.139 0.648 0.648 1.296 1.297 1.944 1.944 0.478 0.478 0.608 1.602 0.82 2.236 0.212 0.636 1.121 1.106 1.542 1.625 1.138 1.403 1.689 2.817 2.25 4.5h-5.449-2.625c-0.662 0-1.175 0.75-1.833 0.75-3.454 0-7.005 1.415-10.344 2.25 1.944 0.162 3.888 0.324 5.832 0.48599 1.318 0.10901 3.521-0.13399 4.474 0.819 0.804 0.80501 4.219 0.194 5.377 0.194 0.679 0 1.548 0.49301 2.192 0.70801 0.684 0.229 1.654 0.041992 2.375 0.041992-0.75 0.25101-1.5 0.50101-2.25 0.75101"/>
   <path id="svg_146" d="m87.006 271.5l-2.25-2.25c-1.387 4.161-1.5 7.618-1.5 12-2.553-1.905-2.502-6.252-4.694-8.444-0.783-0.78299-0.319-1.053-0.556-2.056-0.183-0.776-0.75-1.226-0.75-2.056 0-0.336-0.324-0.51901-0.556-0.75-0.332-0.33099-0.047997-0.551-0.194-0.944-0.27399-0.73999-0.5-1.501-0.75-2.25-0.805 0.806-2.581 1.962-3 3-0.167 0.41501 0.29501 1.353-0.156 1.578-0.793 0.396-1.539 0.69501-2.094 1.422v-5.506c0-1.263-1.09-3.013-1.5-4.244l-1.111 1.111c-0.377 0.37802-0.896 0.15601-1.139 0.38901-0.755 0.72101-0.59 1.727-1.5 2.25 0-5.216 3.001-9.003 5.25-13.5 0.896 1.172 2.475 0.976 3.284 1.784 1.237 1.236 2.209 1.809 3.466 2.716 1.426 1.03 2.733 2.277 4.085 3.404 1.101 0.91702 3.033 1.081 3.679 2.374 0.44801 0.896 0.562 1.01 1.458 1.458 0.831 0.41501 0.66801 1.153 1.278 1.764 0.833 0.832 3.127 1.278 3.75 2.25 0.521 0.81201 0 3.657 0 4.604v5.146c-1.924-0.96301-3.516-3.283-4.5-5.25"/>
   <path id="svg_147" d="m126.76 263.25c1.076-2.152 3.178-3.355 4.236-5.472 0.468-0.93802 1.741-1.256 2.514-2.028 0.91101-0.911 2.217-1.225 3-2.25-1.217 3.65-0.84 7.536-2.25 11.25-0.78999 2.081-1.677 3.707-2.225 5.897-0.32901 1.317-2.1 3.677-3.065 4.643l-4.42 4.42c-1.03 1.03-0.803-2.882-0.688-3.577 0.746-4.468 1.469-8.595 2.898-12.883"/>
  </g>
  <path id="svg_148" fill="#83b94d" d="m115.51 265.5c2.257 5.642 3.691 11.407 5.25 17.25 0.7 2.623 1.027 5.412 1.473 8.086 0.496 2.976 1.527 6.285 1.527 9.307v10.215c0 2.608 0.75 5.196 0.75 7.813 0 0.36401 0.027 4.329-0.025993 4.329h-4.026-10.844c0.513 0-0.917-7.817-1.013-8.298-0.594-2.966-0.782-5.823-0.984-8.85-0.396-5.952-1.975-11.546-2.712-17.442-0.432-3.454-1.02-6.285-2.119-9.584-0.933-2.798-2.85-5.533-4.358-8.049-1.442-2.403-4.532-4.369-6.678-6.086-2.288-1.831-4.195-4.106-6.501-5.951-4.72-3.776-9.147-8.204-14.803-10.467-2.762-1.104-5.296-2.738-8.212-3.468-3.186-0.797-6.018-1.328-8.972-2.806 4.593 1.531 9.443 1.397 14.125 2.958 2.149 0.717 4.523 0.855 6.609 1.75 2.721 1.166 5.441 2.312 8.189 3.411 2.44 0.977 4.734 2.775 6.986 4.126 0.934 0.56099 1.833 1.166 2.739 1.771 0.899 0.59999 1.16 1.793 1.911 2.543 1.558 1.558 4.441 3.851 4.441 6.163 0 1.801 3.975 4.503 5.25 5.778l-1.458-4.374c-0.41901-1.258-0.401-2.72-0.792-3.876-0.15401-0.45801-0.979-1.207-1.236-1.722-0.254-0.509-0.422-1.003-0.603-1.544-0.541-1.623-1.022-3.208-1.787-4.735-2.735-5.471-2.682-12.201-4.361-18.078-1.597-5.587-0.783-11.595-1.418-17.312-0.66399-5.978 1.155-11.841 1.155-17.843 0-1.489 0.672-2.697 1.226-4.081 0.551-1.378 0.716-2.896 1.006-4.348 0.569-2.847 2.776-4.896 3.768-7.587 1.157-3.139 1.669-6.678 2.48-9.923 0.684-2.733 0.55-4.956-0.136-7.698-0.734-2.937-0.094994-6.695-0.094994-9.716 0-2.535-0.58401-5.082-1.278-7.511-0.862-3.019-2.19-5.702-3.222-8.652-1.098-3.139-1.737-5.666-3.393-8.562-2.203-3.855-4.628-6.958-7.758-10.089-0.72501-0.725-1.258-1.053-2.192-1.521-0.35-0.175-0.562-0.71201-0.906-0.828-0.45-0.152-1.039 0.12-1.5 0-0.91901-0.239-1.015-1.162-2.326-0.725-1.272 0.424-2.544 0.848-3.816 1.272-3.759 1.253-6.304 5.633-7.358 9.203-1.214 4.109-0.75 8.526-0.75 12.75 0.85999-0.57399 1.738-1.5 2.796-1.5 1.408 0 3.349 0.37001 4.704 0 0.56699-0.155 0.514-0.75 1.196-0.75 0.572 0 1.574 0.229 1.998-0.194 1.06-1.06 2.744 0.12601 3.556-1.306 0.181 0.72601-1.306 1.5-2.056 1.5-0.482 0-0.619 0.75-1.069 0.75-0.637 0-1.513-0.168-2.125 0-0.567 0.15501-0.513 0.75-1.196 0.75-0.606 0-1.281-0.08699-1.879 0.013-1.475 0.246-2.95 0.492-4.424 0.737l6.75 4.5c-1.5-0.5-3-1-4.5-1.5l3 9-7.392-6.72c-1.082-0.983-0.987-0.688-2.219 0.19199-1.296 0.92601-2.592 1.852-3.889 2.778l1.5-6.75c-1.954 0-4.912-0.605-6.75 0-0.307 0.10101-0.486 0.75-0.826 0.75h-1.915c-1.134 0-2.58-0.40399-3.259 0.75-0.135-0.648-0.051998-0.75 0.528-0.75 1.097 0 0.854-0.51999 1.722-0.75 1.323-0.35199 2.509 0.49101 3.556-0.556 0.561-0.56099 2.149-0.15199 2.99-0.27199 1.568-0.224 3.136-0.448 4.704-0.67201-2.871-1.23-5.591-2.42-8.25-3.75 0.987-1.899 4.119 1.118 5.25 1.5 1.431 0.483 1.376-0.12399 2.611 1.111 0.763 0.763 1.743 1.292 2.639 1.889v-4.704c0-1.22 0.648-2.39 0.944-3.574 0.736-2.945 1.293-5.923 2.03-8.869 0.399-1.596 3.964-5.447 5.379-6.154 2.431-1.216 5.983-2.531 8.675-1.185 1.262 0.631 2.553 1.188 3.843 1.762 1.165 0.518 3.112 0.957 4.026 1.871 2.193 2.193 4.566 4.136 6.075 6.853 1.417 2.55 2.711 4.777 3.542 7.548 1.162 3.874 2.324 7.748 3.486 11.621 0.959 3.196 0.866 6.783 1.417 10.09 0.258 1.543 1.128 2.986 0.991 4.491-0.215 2.358-0.429 4.716-0.644 7.073-0.162 1.792-0.502 3.579-0.756 5.36-0.248 1.732-1.51 3.324-1.51 5.095 0 3.776-1.46 7.785-2.25 11.472 1.103-0.84299 1.493-2.221 1.812-3.501 0.426-1.704 1.096-3.066 1.886-4.646 0.585-1.169 0.539-3.025 0.754-4.315 0.26-1.557 0.852-3.101 1.285-4.616 1.6-5.6 1.635-11.896 2.356-17.669 1.431-11.446-1.404-23.919-5.293-34.612-1.732-4.764-3.383-10.089-6.112-14.379-1.639-2.576-3.278-5.151-4.917-7.727-0.179-0.282-0.771 0.273-0.771-0.228 0-0.73-0.75-0.904-0.75-1.5 0-1.238-1.278-2.473-1.944-3.472-5.844-8.766-5.783-20.176-3.306-30.084 0 12.413 5.075 23.794 10.031 34.945 1.216 2.735 3.208 5.163 4.864 7.647 1.727 2.591 3.008 5.601 4.473 8.347 2.542 4.767 4.499 10.189 5.631 15.473 1.376 6.422 2.493 12.5 2.751 19.087 0.225 5.741 0.312 12.034-1.278 17.598-0.405 1.42-0.97199 2.807-0.97199 4.288 0 1.787-0.788 2.94-1.594 4.553-1.242 2.483-2.016 5.181-2.617 7.885-1.395 6.274-1.824 12.604-2.357 19.002-0.386 4.629 0.166 9.459 0.742 14.065 0.732 5.86 1.653 11.497 2.809 17.272 0.26 1.3 0.643 2.586 0.964 3.873 0.201 0.804 0.246 2.349 0.605 3.066 1.27 2.54 1.61 4.883 2.493 7.533 1.688 5.066 2.908 10.432 4.204 15.616"/>
  <g fill="#557c3e">
   <path id="svg_149" d="m115.51 228.75c0.952-1.904 2.25-4.076 2.25-6.287v-4.137c0-0.227-2.016 0.565-2.25 0.674-1.431 0.661-1.119 0.739-1.689 1.879-0.484 0.97-1.18 1.965-1.394 3.036-0.242 1.212-0.743 7.47-2.167 7.085 1.107 0.62801 0.75 1.929 0.75 3 1.683-1.683 3.434-3.118 4.5-5.25"/>
   <path id="svg_150" d="m154.51 232.5c0.99501 0 2.939-0.405 3.815 0.033005 1.456 0.728 2.913 1.456 4.369 2.184 1.111 0.556 2.18 2.147 3.053 3.021 0.38701 0.38699 2.611 2.263 0.957 2.263-0.069992 0-2.332-2.888-2.611-3.167-0.882-0.882-2.377-1.791-3.583-2.083-0.517-0.125-1.113 0.129-1.625-0.042007-0.573-0.19-1.527-0.74699-2.125-0.70799-0.562 0.035995-1.043 0.75-1.625 0.75h-2.125c0.248 0.74399 0.384 1.884 0.944 2.444 0.735 0.73498 1.721 0.97099 2.444 1.694 0.741 0.741 1.447 1.654 2.39 2.125 0.856 0.42899 0.90401 1.439 1.722 1.236-0.96899 0.204-1.148-0.75-2.056-0.75-0.358 0-1.938-0.993-2.25-1.306-0.521-0.521-2.105-0.194-2.815-0.194-0.76199 0-0.379 1.604-0.379 2.25-0.50499-0.879-1.457-0.707-2.158-1.408l-3.092-3.092v6c-1.064-1.064-1.514-2.661-3-3-1.467-0.334-3.75 0.248-3.75 2.056 0 0.77-2.25-1.488-2.25-2.602 0-1.019 0.69-5.021-0.75-4.704 0.685-0.342 1.348-0.59801 1.889-1.139l1-1c0.228-0.228-0.057999-0.683 0.11099-0.86099 1.563-1.653 2.271 0 3.959 0h6.332c0.63901 0 3.61-1.924 3.209 0"/>
  </g>
  <path id="svg_151" fill="#ed1c24" d="m135.01 225c-2.237-1.118-4.276-2.514-6.501-3.626-2.588-1.293-4.124-3.291-5.838-5.576-1.598-2.131-2.715-4.406-3.903-6.781-1.289-2.578-1.643-5.192-2.211-8.029-1.036-5.182 0.655-10.143 2.952-14.735 1.016-2.031 2.095-4.166 4.312-5.09 2.729-1.138 5.459-2.274 8.188-3.412l-2.25 15.75c3.388-4.742 6.774-9.484 10.162-14.227 0.148-0.20801 0.81799-1.482 1.088-1.523 0.49899-0.077011 2.265 1.567 2.664 1.845 2.362 1.635 4.724 3.271 7.086 4.905l-3.75-11.25c6.814 0 13.472 0.002991 20.25-0.75-1.623-0.608-3.245-1.217-4.868-1.825-1.283-0.48099-2.086-1.429-3.382-1.925-2.564-0.981-4.573-2.25-7.5-2.25 2.759-1.38 6.188-0.75 9.231-0.75 3.493 0 5.6 0.19299 8.91 1.297 1.132 0.37799 1.957 1.252 3.015 1.781 1.018 0.509 2.991 1.268 3.621 2.213 1.74 2.61 3.693 5.151 5.099 7.96 2.335 4.671 3.846 12.364 2.57 17.463-1.354 5.416-2.766 11.784-6.497 16.138-5.345 6.234-11.311 11.927-19.578 13.993-7.803 1.95-15.545 2.066-22.87-1.596"/>
  <g fill="#557c3e">
   <path id="svg_155" d="m45.006 126.75"/>
   <path id="svg_156" d="m140.26 246"/>
   <path id="svg_157" d="m24.006 210.75"/>
   <path id="svg_158" d="m121.51 219.75l4.327 4.327c1.443 1.443 2.052 1.649 3.923 2.423 1.338 0.554 3.221 2.25 4.656 2.25 1.304 0 1.077 0.196 2.094 0.75 0.73401 0.39999 1.396 0.83501 2.25 0.75-0.916-0.19-0.75 0.231-0.75 0.972 0 0.92999-0.814 0.77901-1.5 1.278-1.309 0.953-2.422 2.422-3.567 3.567-2.086 2.086-5.283 3.146-8.054 3.838-1.317 0.329-2.463 1.595-3.825 1.595-1.489 0-2.825 0.75-4.21 0.75-0.986 0-3.245 0.47-3.613-0.81599-0.493-1.729-0.987-3.456-1.48-5.184 1.625 0.161 2.982-1.491 4.344-2.172 0.581-0.29001 0.784-1.456 1.295-1.967 0.82999-0.82999 1.26-1.408 1.783-2.455 0.672-1.344 0.652-3.205 1.022-4.684 0.389-1.558 1.444-3.635 1.305-5.222"/>
  </g>
 </g>
</svg>
